PathFileType	4	(X/Y/Z)	c:/Users/goper/Files/vsCode/490R/osim_files/C08/C08_Slow_03.trc
DataRate	CameraRate	NumFrames	NumMarkers	Units                	OrigDataRate	OrigDataStartFrame	OrigNumFrames
250.00	250.00	6	36	mm	250.0	2164	2885
                Frame#	Time	LPSIS			LASIS			LTH1			LTH2			LTH3			LTH4			LLFE			LMFE			LSH1			LSH2			LSH3			LSH4			LLMAL			LMMAL			LCAL			LMTP5			LTOE			LMTP1			RPSIS			RASIS			RTH1			RTH2			RTH3			RTH4			RLFE			RMFE			RSH1			RSH2			RSH3			RSH4			RLMAL			RMMAL			RCAL			RMTP1			RTOE			RMTP5		
		X1	Y1	Z1	X2	Y2	Z2	X3	Y3	Z3	X4	Y4	Z4	X5	Y5	Z5	X6	Y6	Z6	X7	Y7	Z7	X8	Y8	Z8	X9	Y9	Z9	X10	Y10	Z10	X11	Y11	Z11	X12	Y12	Z12	X13	Y13	Z13	X14	Y14	Z14	X15	Y15	Z15	X16	Y16	Z16	X17	Y17	Z17	X18	Y18	Z18	X19	Y19	Z19	X20	Y20	Z20	X21	Y21	Z21	X22	Y22	Z22	X23	Y23	Z23	X24	Y24	Z24	X25	Y25	Z25	X26	Y26	Z26	X27	Y27	Z27	X28	Y28	Z28	X29	Y29	Z29	X30	Y30	Z30	X31	Y31	Z31	X32	Y32	Z32	X33	Y33	Z33	X34	Y34	Z34	X35	Y35	Z35	X36	Y36	Z36

2164	8.65200	-2784.67749	1037.98413	201.74086	-2970.72363	1000.82599	37.27756	-2966.88281	734.17352	348.70868	-2991.87866	661.90588	334.22305	-3010.17651	589.91034	324.38028	-3064.86475	689.50610	314.66187	-3022.04126	542.92670	315.38507	-3028.69653	533.78027	187.49487	-2993.09961	410.66907	332.75385	-3006.37964	364.31250	331.74677	-3048.34839	419.37708	325.64047	-3055.97192	375.15134	325.17007	-3050.20972	92.96509	270.66940	-3072.57446	109.02904	185.29617	-2990.46265	71.88320	212.51503	-3171.54224	46.79057	293.46591	-3229.43237	77.05019	238.35841	-3197.61572	56.70328	185.62320	-2778.61865	1035.95630	141.58952	-2999.59570	1005.39465	272.47806	-2879.04175	735.98962	-14.88183	-2875.76758	657.72412	-1.91714	-2870.56396	578.35883	3.54162	-2952.66260	656.54443	18.06027	-2859.86865	510.83350	12.90621	-2871.67139	499.58652	141.00566	-2775.54858	466.28192	1.56697	-2755.18335	426.79190	-5.38636	-2825.04468	430.87921	8.91197	-2800.36084	396.50574	2.14968	-2574.30518	184.35861	47.20864	-2600.03638	170.92943	133.48151	-2511.58154	203.29749	114.96611	-2657.23486	47.83318	129.24164	-2679.11743	56.32415	75.34280	-2627.79590	59.47524	12.73221
2165	8.65600	-2788.62158	1038.45642	202.38412	-2974.40601	1001.08124	38.08139	-2970.67407	734.43298	349.20691	-2995.48071	662.19037	334.68082	-3013.64209	590.06152	324.74924	-3068.40991	689.54071	314.59937	-3029.38867	544.54047	316.96451	-3031.25879	533.95923	187.64554	-2995.80884	411.02594	333.07797	-3008.86548	364.54752	331.91046	-3051.09302	419.31927	325.73703	-3058.45239	375.06851	325.18088	-3050.54175	93.00706	270.54938	-3072.80664	108.87555	185.04868	-2990.58789	71.92261	212.47884	-3171.65308	46.72382	293.24817	-3229.79370	76.17795	237.90034	-3197.76782	56.00221	185.28604	-2781.42285	1036.40906	142.15909	-3003.81543	1006.15344	273.00400	-2884.95093	735.56512	-14.30430	-2882.46143	657.15253	-1.58940	-2876.52295	577.14313	4.05619	-2959.42310	656.68402	18.22454	-2867.58765	510.41104	12.73245	-2880.65479	498.73981	140.85246	-2783.84497	466.56067	1.32105	-2762.63257	427.44604	-5.47346	-2832.96240	430.68765	8.80485	-2807.82935	396.57306	2.05006	-2579.82129	187.35349	47.85262	-2604.54272	173.68001	133.48843	-2517.37134	208.19781	114.94857	-2658.69043	48.54483	128.37715	-2680.90259	56.73548	75.32219	-2629.64648	61.38447	12.78255
2166	8.66000	-2792.69067	1038.86841	203.08058	-2978.17871	1001.36407	38.91722	-2974.28271	734.61688	349.65961	-2998.99219	662.40192	335.09567	-3016.91406	590.15991	324.99689	-3071.79614	689.53247	314.58240	-3032.46606	544.59540	317.16940	-3033.82080	534.12756	187.77484	-2998.39819	411.14706	333.25739	-3011.10425	364.83231	331.89005	-3053.71387	419.20505	325.74112	-3060.87695	374.98486	325.15921	-3050.63501	93.08883	270.29929	-3073.01636	108.71193	184.82462	-2990.70703	71.96120	212.43069	-3171.76611	46.63079	293.08649	-3230.09961	75.30731	237.44826	-3197.90698	55.28998	184.95569	-2786.43433	1036.45923	142.90704	-3008.03223	1006.90564	273.52231	-2890.83716	735.11145	-13.71247	-2889.23291	656.56940	-1.33694	-2884.23193	576.44806	4.07764	-2965.49023	656.82581	18.26474	-2875.82056	509.71463	12.61023	-2889.72974	497.91245	140.79176	-2792.16113	466.93228	1.47518	-2770.82520	427.84106	-5.75962	-2840.90210	430.48001	8.74809	-2815.42603	396.66125	2.02203	-2584.47046	191.18901	47.14720	-2609.40625	176.41820	133.60918	-2523.19336	213.19162	115.15942	-2660.43750	49.95085	128.07718	-2682.82324	57.25065	75.26778	-2631.56396	63.42088	12.92080
2167	8.66400	-2796.72363	1039.27307	203.78484	-2981.94971	1001.65570	39.76160	-2977.74829	734.71643	350.06055	-3002.35352	662.53351	335.44830	-3019.75659	590.30365	324.99643	-3075.09302	689.45245	314.58618	-3035.45142	544.63855	317.35651	-3036.34155	534.27869	187.85074	-3000.89111	411.34946	333.43530	-3013.30200	364.94537	331.96707	-3056.21045	419.06641	325.78189	-3063.15747	374.81177	325.08392	-3050.94458	93.04890	270.13037	-3073.21387	108.52983	184.58687	-2990.78198	71.97652	212.35962	-3171.84204	46.54467	292.91907	-3230.37793	74.44363	236.99612	-3198.03638	54.60000	184.65681	-2789.24438	1036.95203	143.48291	-3012.22168	1007.66785	274.05475	-2896.83301	734.66107	-13.16573	-2896.06934	656.01831	-1.07159	-2893.50854	576.26898	3.69929	-2972.28882	656.94434	18.49225	-2884.10889	509.10162	12.52582	-2898.84204	497.11929	140.76494	-2800.57544	467.26672	1.33730	-2778.53711	428.49988	-5.82901	-2848.90552	430.19913	8.75807	-2823.17798	396.75949	1.98495	-2590.36401	194.30508	47.88918	-2614.31812	179.23235	133.84012	-2529.33545	218.17139	115.25315	-2662.11377	51.30087	127.89516	-2684.92749	57.90582	75.14516	-2633.78125	65.73423	12.92551
2168	8.66800	-2800.75854	1039.65002	204.51479	-2985.71118	1001.92505	40.59088	-2981.12671	734.81165	350.38986	-3005.56494	662.65015	335.76559	-3022.73438	590.28607	325.18637	-3078.33472	689.34998	314.67667	-3038.33398	544.63257	317.50769	-3038.79297	534.38824	187.90910	-3003.33179	411.52084	333.57794	-3015.36328	364.97394	331.98923	-3058.57373	418.84674	325.73837	-3065.37061	374.65735	325.02386	-3051.27148	93.04806	269.99683	-3073.39209	108.33340	184.35558	-2990.87817	71.99584	212.32623	-3175.38281	46.11230	293.26749	-3230.74023	73.63976	236.57292	-3198.19409	53.92437	184.39987	-2794.23877	1036.92371	144.37886	-3016.39160	1008.39227	274.63873	-2902.79272	734.16211	-12.62972	-2902.87671	655.44666	-0.81482	-2901.24683	575.67426	3.74595	-2979.15088	657.09882	18.66278	-2892.38696	508.48584	12.55038	-2908.01392	496.37646	140.80701	-2809.07959	467.40115	0.98630	-2786.63745	428.99734	-5.94328	-2857.03638	429.99585	8.78051	-2830.98633	396.89926	2.02542	-2595.29443	198.09845	47.27140	-2619.20825	181.99223	134.60896	-2535.83276	223.19614	115.35922	-2663.88330	52.66660	127.71850	-2687.16431	58.61519	75.07151	-2636.13184	68.13152	12.96433
2169	8.67200	-2804.77222	1039.99170	205.31487	-2989.43091	1002.16620	41.40308	-2984.45483	734.83551	350.71298	-3008.67261	662.70715	336.00287	-3025.59058	590.22290	325.34613	-3081.55542	689.19043	314.84558	-3041.03711	544.55524	317.62347	-3041.19946	534.45984	187.95035	-3005.55713	411.57883	333.67685	-3017.59106	364.92572	332.15265	-3060.93311	418.67792	325.70038	-3067.41016	374.43411	324.91455	-3051.57910	93.06680	269.84540	-3073.59399	108.13817	184.05466	-2991.00684	72.00754	212.21262	-3175.46704	46.01479	293.14758	-3231.05737	72.81976	236.19742	-3198.32446	53.28720	184.13388	-2798.03027	1037.16077	145.10544	-3020.65039	1009.09473	275.21158	-2908.84009	733.68042	-12.12671	-2909.73804	654.83923	-0.53181	-2909.02930	575.05377	3.80282	-2986.89624	657.36176	19.00745	-2900.65918	507.86713	12.63175	-2917.07739	495.67300	140.89067	-2819.72949	468.48599	0.49869	-2794.76343	429.54367	-6.08473	-2865.16162	429.74066	8.81366	-2838.72852	396.98041	2.13121	-2600.99780	201.66919	47.28953	-2624.42725	184.82257	134.81686	-2542.36157	228.16873	115.59145	-2665.82031	54.22653	127.50951	-2689.58740	59.41798	74.97838	-2638.62085	70.64594	13.02148
